<svg width="20" height="21" viewBox="0 0 20 21" fill="none" xmlns="http://www.w3.org/2000/svg">
<path d="M9.99999 19.2917C5.05832 19.2917 1.04166 15.275 1.04166 10.3333C1.04166 5.39167 5.05832 1.375 9.99999 1.375C14.9417 1.375 18.9583 5.39167 18.9583 10.3333C18.9583 15.275 14.9417 19.2917 9.99999 19.2917ZM9.99999 2.625C5.74999 2.625 2.29166 6.08333 2.29166 10.3333C2.29166 14.5833 5.74999 18.0417 9.99999 18.0417C14.25 18.0417 17.7083 14.5833 17.7083 10.3333C17.7083 6.08333 14.25 2.625 9.99999 2.625Z" fill="#1E1F2E"/>
<path d="M7.50001 18.4583H6.66668C6.32501 18.4583 6.04168 18.1749 6.04168 17.8333C6.04168 17.4916 6.30835 17.2166 6.65001 17.2083C5.34168 12.7416 5.34168 7.92492 6.65001 3.45825C6.30835 3.44992 6.04168 3.17492 6.04168 2.83325C6.04168 2.49159 6.32501 2.20825 6.66668 2.20825H7.50001C7.70001 2.20825 7.89168 2.30825 8.00835 2.46659C8.12501 2.63325 8.15835 2.84159 8.09168 3.03325C6.52501 7.74159 6.52501 12.9249 8.09168 17.6416C8.15835 17.8333 8.12501 18.0416 8.00835 18.2083C7.89168 18.3583 7.70001 18.4583 7.50001 18.4583Z" fill="#1E1F2E"/>
<path d="M12.5 18.4582C12.4333 18.4582 12.3667 18.4499 12.3 18.4249C11.975 18.3166 11.7917 17.9582 11.9083 17.6332C13.475 12.9249 13.475 7.74157 11.9083 3.02491C11.8 2.69991 11.975 2.34157 12.3 2.23324C12.6333 2.12491 12.9833 2.29991 13.0917 2.62491C14.75 7.59157 14.75 13.0582 13.0917 18.0166C13.0083 18.2916 12.7583 18.4582 12.5 18.4582Z" fill="#1E1F2E"/>
<path d="M10 14.6665C7.675 14.6665 5.35833 14.3415 3.125 13.6832C3.11667 14.0165 2.84167 14.2915 2.5 14.2915C2.15833 14.2915 1.875 14.0082 1.875 13.6665V12.8332C1.875 12.6332 1.975 12.4415 2.13333 12.3248C2.3 12.2082 2.50833 12.1748 2.7 12.2415C7.40833 13.8082 12.6 13.8082 17.3083 12.2415C17.5 12.1748 17.7083 12.2082 17.875 12.3248C18.0417 12.4415 18.1333 12.6332 18.1333 12.8332V13.6665C18.1333 14.0082 17.85 14.2915 17.5083 14.2915C17.1667 14.2915 16.8917 14.0248 16.8833 13.6832C14.6417 14.3415 12.325 14.6665 10 14.6665Z" fill="#1E1F2E"/>
<path d="M17.5 8.45822C17.4333 8.45822 17.3667 8.44989 17.3 8.42489C12.5917 6.85822 7.39999 6.85822 2.69166 8.42489C2.35833 8.53322 2.00833 8.35822 1.89999 8.03322C1.79999 7.69989 1.97499 7.34989 2.29999 7.24155C7.26666 5.58322 12.7333 5.58322 17.6917 7.24155C18.0167 7.34989 18.2 7.70822 18.0833 8.03322C18.0083 8.29155 17.7583 8.45822 17.5 8.45822Z" fill="#1E1F2E"/>
</svg>
