<svg width="146" height="49" viewBox="0 0 146 49" fill="none" xmlns="http://www.w3.org/2000/svg">
<g clip-path="url(#clip0_168_3336)">
<path d="M133.028 32.8457C132.567 32.8457 132.198 32.7228 131.92 32.4763C131.644 32.2301 131.505 31.8913 131.505 31.4603V23.3782C131.505 21.1461 132.144 19.3988 133.421 18.1364C134.698 16.8741 136.475 16.2429 138.752 16.2429C140.245 16.2429 141.538 16.5277 142.63 17.0973C143.722 17.6669 144.553 18.4905 145.123 19.5681C145.707 20.6457 146 21.9158 146 23.3782V31.4603C146 31.8913 145.861 32.2301 145.584 32.4763C145.307 32.7228 144.938 32.8457 144.476 32.8457C144.015 32.8457 143.638 32.7228 143.345 32.4763C143.069 32.2146 142.93 31.8759 142.93 31.4603V27.6964H134.575V31.4603C134.575 31.8759 134.429 32.2146 134.136 32.4763C133.859 32.7228 133.49 32.8457 133.028 32.8457ZM142.93 25.318V23.309C142.93 21.7695 142.576 20.615 141.868 19.8452C141.176 19.0601 140.137 18.6676 138.752 18.6676C135.967 18.6676 134.575 20.2147 134.575 23.309V25.318H142.93Z" fill="black"/>
<path d="M121.964 32.8457C120.244 32.8457 118.752 32.5152 117.489 31.8544C116.226 31.1932 115.259 30.2401 114.589 28.9949C113.92 27.7496 113.585 26.2738 113.585 24.5674C113.585 22.861 113.92 21.3852 114.589 20.14C115.259 18.8794 116.218 17.9186 117.466 17.2576C118.73 16.5812 120.214 16.2429 121.919 16.2429C123.334 16.2429 124.643 16.4889 125.846 16.9809C127.048 17.4728 127.939 18.1261 128.517 18.9409C128.7 19.1869 128.791 19.4405 128.791 19.7019C128.791 20.0862 128.586 20.4321 128.174 20.7396C127.992 20.8779 127.764 20.9471 127.49 20.9471C127.261 20.9471 127.033 20.901 126.804 20.8087C126.576 20.7011 126.386 20.5551 126.234 20.3706C125.716 19.771 125.115 19.3406 124.43 19.0793C123.745 18.8025 122.908 18.6642 121.919 18.6642C120.259 18.6642 118.966 19.1869 118.037 20.2322C117.108 21.2622 116.644 22.7073 116.644 24.5674C116.644 26.4122 117.108 27.8496 118.037 28.8796C118.981 29.9096 120.29 30.4246 121.964 30.4246C123.882 30.4246 125.412 29.8558 126.554 28.7181C127.025 28.2723 127.459 28.0494 127.855 28.0494C128.129 28.0494 128.38 28.1417 128.608 28.3262C128.958 28.6336 129.134 28.9718 129.134 29.3408C129.134 29.6175 129.035 29.8865 128.837 30.1478C128.182 30.9934 127.246 31.6543 126.028 32.1309C124.826 32.6074 123.471 32.8457 121.964 32.8457Z" fill="black"/>
<path d="M105.404 32.5822C104.944 32.5822 104.577 32.4595 104.302 32.214C104.026 31.9684 103.889 31.6309 103.889 31.2015V18.6133H99.4589C99.0149 18.6133 98.6632 18.5136 98.4031 18.3141C98.1582 18.0993 98.0359 17.8078 98.0359 17.4396C98.0359 17.0561 98.1582 16.7646 98.4031 16.5651C98.6477 16.3503 98.9997 16.2429 99.4589 16.2429H111.371C111.83 16.2429 112.182 16.3503 112.427 16.5651C112.672 16.7646 112.794 17.0561 112.794 17.4396C112.794 17.8078 112.664 18.0993 112.404 18.3141C112.159 18.5136 111.815 18.6133 111.371 18.6133H106.941V31.2015C106.941 31.6158 106.796 31.9533 106.505 32.214C106.23 32.4595 105.862 32.5822 105.404 32.5822Z" fill="black"/>
<path d="M93.8075 32.8457C93.3319 32.8457 92.9514 32.7228 92.666 32.4769C92.3807 32.2307 92.2382 31.8926 92.2382 31.4623V17.6265C92.2382 17.1961 92.3807 16.8579 92.666 16.6119C92.9514 16.3659 93.3319 16.2429 93.8075 16.2429C94.2673 16.2429 94.6478 16.3659 94.9489 16.6119C95.2501 16.8579 95.4005 17.1961 95.4005 17.6265V31.4623C95.4005 31.8926 95.2501 32.2307 94.9489 32.4769C94.6478 32.7228 94.2673 32.8457 93.8075 32.8457Z" fill="black"/>
<path d="M82.9542 32.8457C81.432 32.8457 80.0026 32.5998 78.6665 32.1078C77.3307 31.6006 76.1731 30.8781 75.1944 29.9403C74.9615 29.7097 74.8449 29.4484 74.8449 29.1563C74.8449 28.8181 75.0001 28.4953 75.311 28.1878C75.5594 27.9418 75.8315 27.8188 76.1267 27.8188C76.4373 27.8188 76.8102 27.9956 77.2451 28.3492C77.9754 29.0102 78.8375 29.5253 79.8317 29.8942C80.8417 30.2478 81.8823 30.4246 82.9542 30.4246C83.9797 30.4246 84.7799 30.2555 85.3547 29.9172C85.9295 29.5637 86.2168 29.0717 86.2168 28.4414C86.2168 27.7804 85.9061 27.25 85.2849 26.8503C84.6633 26.4353 83.6068 26.0663 82.1155 25.7435C79.7697 25.2362 78.0607 24.5674 76.9888 23.7373C75.9323 22.9072 75.4043 21.8387 75.4043 20.532C75.4043 19.7019 75.6839 18.964 76.243 18.3183C76.8023 17.6573 77.5791 17.15 78.5733 16.7964C79.5833 16.4274 80.7329 16.2429 82.0223 16.2429C83.4671 16.2429 84.7486 16.4812 85.8673 16.9578C87.0015 17.419 87.8636 18.0723 88.4539 18.9178C88.6558 19.2407 88.7569 19.5174 88.7569 19.748C88.7415 20.1323 88.5471 20.4628 88.1742 20.7396C87.9723 20.8779 87.7394 20.9471 87.4752 20.9471C86.9936 20.9471 86.5976 20.7626 86.2866 20.3936C85.8363 19.8556 85.2302 19.4328 84.4692 19.1254C83.7234 18.8179 82.9078 18.6642 82.0223 18.6642C80.9194 18.6642 80.057 18.8333 79.4357 19.1715C78.8296 19.4943 78.5268 19.9478 78.5268 20.532C78.5268 21.1162 78.822 21.6004 79.4123 21.9848C80.0181 22.3537 81.0591 22.7073 82.5349 23.0455C84.1662 23.4298 85.4789 23.868 86.4731 24.3599C87.4676 24.8365 88.1897 25.4053 88.6403 26.0663C89.1065 26.7274 89.3394 27.519 89.3394 28.4414C89.3394 29.3177 89.0755 30.0941 88.5471 30.7705C88.019 31.4315 87.2732 31.9466 86.31 32.3154C85.3468 32.6691 84.2284 32.8457 82.9542 32.8457Z" fill="black"/>
<path d="M70.2216 32.8457C69.7858 32.8457 69.4369 32.7228 69.1756 32.4769C68.9139 32.2307 68.7831 31.8926 68.7831 31.4623V17.6265C68.7831 17.1961 68.9139 16.8579 69.1756 16.6119C69.4369 16.3659 69.7858 16.2429 70.2216 16.2429C70.6432 16.2429 70.9917 16.3659 71.2679 16.6119C71.5441 16.8579 71.6822 17.1961 71.6822 17.6265V31.4623C71.6822 31.8926 71.5441 32.2307 71.2679 32.4769C70.9917 32.7228 70.6432 32.8457 70.2216 32.8457Z" fill="black"/>
<path d="M57.7146 32.8457C56.6294 32.8457 55.7303 32.4769 55.0174 31.739C54.3041 30.9857 53.6765 29.7481 53.1339 28.0264L49.9017 17.834C49.8394 17.6496 49.8084 17.4574 49.8084 17.2576C49.8084 16.5812 50.2891 16.2429 51.2501 16.2429C51.7308 16.2429 52.0951 16.3352 52.3432 16.5197C52.6068 16.7041 52.8005 17.0039 52.9244 17.419L56.1335 27.7958C56.4281 28.7335 56.6992 29.4099 56.9473 29.825C57.1953 30.2401 57.451 30.4476 57.7146 30.4476C57.9781 30.4476 58.2341 30.2401 58.4822 29.825C58.7299 29.4099 59.0014 28.7335 59.2959 27.7958L62.5048 17.419C62.6289 17.0039 62.8148 16.7041 63.0628 16.5197C63.3264 16.3352 63.6987 16.2429 64.179 16.2429C65.1403 16.2429 65.6207 16.5812 65.6207 17.2576C65.6207 17.4574 65.5897 17.6496 65.5278 17.834L62.2955 28.0264C61.7529 29.7481 61.125 30.9857 60.4121 31.739C59.6988 32.4769 58.7998 32.8457 57.7146 32.8457Z" fill="black"/>
<path d="M0 32.7957V1.77881C0 0.59271 1.24152 -0.186247 2.31263 0.327812L14.1826 6.02453C14.7414 6.2927 15.0967 6.85673 15.0967 7.47553V31.6944C15.0967 32.5834 15.819 33.3042 16.7101 33.3042H27.6004C28.4915 33.3042 29.2138 32.5834 29.2138 31.6944V14.2698C29.2138 13.6527 28.8605 13.09 28.3041 12.8209L25.8142 11.6167L19.9247 8.76845C19.3683 8.49936 19.0149 7.93659 19.0149 7.31957V1.78736C19.0149 0.599154 20.2605 -0.179721 21.3319 0.338458L33.0867 6.02324C33.6429 6.29236 33.9965 6.85512 33.9965 7.47214V32.7793C33.9965 33.2319 33.8056 33.6632 33.471 33.9682L17.8167 48.2364C17.1928 48.8052 16.2349 48.797 15.6207 48.218L0.505359 33.966C0.182791 33.662 0 33.2385 0 32.7957Z" fill="url(#paint0_linear_168_3336)"/>
</g>
<defs>
<linearGradient id="paint0_linear_168_3336" x1="-6.1541e-07" y1="0.0789094" x2="34.1299" y2="48.7455" gradientUnits="userSpaceOnUse">
<stop stop-color="#18A5A7"/>
<stop offset="1" stop-color="#BFFFC7"/>
</linearGradient>
<clipPath id="clip0_168_3336">
<rect width="146" height="48.6667" fill="white"/>
</clipPath>
</defs>
</svg>
