<svg width="32" height="33" viewBox="0 0 32 33" fill="none" xmlns="http://www.w3.org/2000/svg">
<path fill-rule="evenodd" clip-rule="evenodd" d="M6.66665 9.66659C6.66665 8.93021 7.26358 8.33325 7.99998 8.33325H24C24.7364 8.33325 25.3333 8.93021 25.3333 9.66659C25.3333 10.403 24.7364 10.9999 24 10.9999H7.99998C7.26358 10.9999 6.66665 10.403 6.66665 9.66659ZM6.66665 16.3333C6.66665 15.5969 7.26358 14.9999 7.99998 14.9999H18.6666C19.403 14.9999 20 15.5969 20 16.3333C20 17.0697 19.403 17.6666 18.6666 17.6666H7.99998C7.26358 17.6666 6.66665 17.0697 6.66665 16.3333ZM7.99998 21.6666C7.26358 21.6666 6.66665 22.2635 6.66665 22.9999C6.66665 23.7363 7.26358 24.3333 7.99998 24.3333H24C24.7364 24.3333 25.3333 23.7363 25.3333 22.9999C25.3333 22.2635 24.7364 21.6666 24 21.6666H7.99998Z" fill="black"/>
</svg>
